<svg xmlns="http://www.w3.org/2000/svg" xmlns:xlink="http://www.w3.org/1999/xlink" viewBox="0 0 150 44.94"><defs><style>.cls-1{fill:#fff}.cls-2{fill:url(#Degradado_sin_nombre_9)}.cls-3{fill:url(#Degradado_sin_nombre_9-2)}.cls-4{fill:url(#Degradado_sin_nombre_9-3)}.cls-5{fill:url(#Degradado_sin_nombre_9-4)}.cls-6{fill:url(#Degradado_sin_nombre_9-5)}.cls-7{fill:url(#Degradado_sin_nombre_9-6)}.cls-8{fill:url(#Degradado_sin_nombre_9-7)}.cls-9{fill:url(#Degradado_sin_nombre_9-8)}.cls-10{fill:url(#Degradado_sin_nombre_9-9)}.cls-11{fill:url(#Degradado_sin_nombre_9-10)}.cls-12{fill:url(#Degradado_sin_nombre_9-11)}.cls-13{fill:url(#Degradado_sin_nombre_9-12)}.cls-14{fill:url(#Degradado_sin_nombre_9-13)}.cls-15{fill:url(#Degradado_sin_nombre_9-14)}.cls-16{fill:url(#Degradado_sin_nombre_9-15)}.cls-17{fill:url(#Degradado_sin_nombre_9-16)}.cls-18{fill:url(#Degradado_sin_nombre_9-17)}.cls-19{fill:url(#Degradado_sin_nombre_9-18)}.cls-20{fill:url(#Degradado_sin_nombre_9-19)}.cls-21{fill:url(#Degradado_sin_nombre_9-20)}.cls-22{fill:url(#Degradado_sin_nombre_9-21)}.cls-23{fill:url(#Degradado_sin_nombre_9-22)}.cls-24{fill:url(#Degradado_sin_nombre_9-23)}.cls-25{fill:url(#Degradado_sin_nombre_9-24)}.cls-26{fill:url(#Degradado_sin_nombre_9-25)}.cls-27{fill:url(#Degradado_sin_nombre_9-26)}.cls-28{fill:url(#Degradado_sin_nombre_9-27)}.cls-29{fill:url(#Degradado_sin_nombre_9-28)}.cls-30{fill:url(#Degradado_sin_nombre_9-29)}.cls-31{fill:url(#Degradado_sin_nombre_9-30)}.cls-32{fill:url(#Degradado_sin_nombre_9-31)}.cls-33{fill:url(#Degradado_sin_nombre_9-32)}.cls-34{fill:url(#Degradado_sin_nombre_9-33)}.cls-35{fill:url(#Degradado_sin_nombre_9-34)}.cls-36{fill:url(#Degradado_sin_nombre_9-35)}.cls-37{fill:url(#Degradado_sin_nombre_9-36)}.cls-38{fill:url(#Degradado_sin_nombre_9-37)}.cls-39{fill:url(#Degradado_sin_nombre_9-38)}.cls-40{fill:url(#Degradado_sin_nombre_9-39)}.cls-41{fill:url(#Degradado_sin_nombre_9-40)}.cls-42{fill:url(#Degradado_sin_nombre_9-41)}.cls-43{fill:url(#Degradado_sin_nombre_9-42)}.cls-44{fill:url(#Degradado_sin_nombre_9-43)}.cls-45{fill:url(#Degradado_sin_nombre_9-44)}.cls-46{fill:url(#Degradado_sin_nombre_9-45)}.cls-47{fill:url(#Degradado_sin_nombre_9-46)}.cls-48{fill:url(#Degradado_sin_nombre_9-47)}.cls-49{fill:url(#Degradado_sin_nombre_9-48)}.cls-50{fill:url(#Degradado_sin_nombre_9-49)}.cls-51{fill:url(#Degradado_sin_nombre_9-50)}.cls-52{fill:url(#Degradado_sin_nombre_9-51)}.cls-53{fill:url(#Degradado_sin_nombre_9-52)}.cls-54{fill:url(#Degradado_sin_nombre_9-53)}.cls-55{fill:url(#Degradado_sin_nombre_9-54)}.cls-56{fill:url(#Degradado_sin_nombre_9-55)}.cls-57{fill:url(#Degradado_sin_nombre_9-56)}.cls-58{fill:url(#Degradado_sin_nombre_9-57)}</style><linearGradient id="Degradado_sin_nombre_9" x1="128.57" y1="47.31" x2="157.53" y2="19.79" gradientUnits="userSpaceOnUse"><stop offset="0" stop-color="#fff"/><stop offset=".99" stop-color="#939297"/></linearGradient><linearGradient id="Degradado_sin_nombre_9-2" x1="124.2" y1="42.72" x2="153.16" y2="15.2" xlink:href="#Degradado_sin_nombre_9"/><linearGradient id="Degradado_sin_nombre_9-3" x1="107.14" y1="24.76" x2="136.09" y2="-2.76" xlink:href="#Degradado_sin_nombre_9"/><linearGradient id="Degradado_sin_nombre_9-4" x1="102.77" y1="20.17" x2="131.73" y2="-7.35" xlink:href="#Degradado_sin_nombre_9"/><linearGradient id="Degradado_sin_nombre_9-5" x1="115.67" y1="33.74" x2="144.63" y2="6.22" xlink:href="#Degradado_sin_nombre_9"/><linearGradient id="Degradado_sin_nombre_9-6" x1="129.33" y1="48.12" x2="158.29" y2="20.59" xlink:href="#Degradado_sin_nombre_9"/><linearGradient id="Degradado_sin_nombre_9-7" x1="101.99" y1="19.35" x2="130.94" y2="-8.18" xlink:href="#Degradado_sin_nombre_9"/><linearGradient id="Degradado_sin_nombre_9-8" x1="125.21" y1="43.77" x2="154.16" y2="16.25" xlink:href="#Degradado_sin_nombre_9"/><linearGradient id="Degradado_sin_nombre_9-9" x1="105.88" y1="23.44" x2="134.83" y2="-4.08" xlink:href="#Degradado_sin_nombre_9"/><linearGradient id="Degradado_sin_nombre_9-10" x1="125.86" y1="44.46" x2="154.82" y2="16.94" xlink:href="#Degradado_sin_nombre_9"/><linearGradient id="Degradado_sin_nombre_9-11" x1="125.88" y1="44.48" x2="154.83" y2="16.96" xlink:href="#Degradado_sin_nombre_9"/><linearGradient id="Degradado_sin_nombre_9-12" x1="120.87" y1="39.21" x2="149.82" y2="11.69" xlink:href="#Degradado_sin_nombre_9"/><linearGradient id="Degradado_sin_nombre_9-13" x1="105.2" y1="22.73" x2="134.16" y2="-4.8" xlink:href="#Degradado_sin_nombre_9"/><linearGradient id="Degradado_sin_nombre_9-14" x1="110.21" y1="28" x2="139.17" y2=".47" xlink:href="#Degradado_sin_nombre_9"/><linearGradient id="Degradado_sin_nombre_9-15" x1="105.34" y1="22.87" x2="134.29" y2="-4.65" xlink:href="#Degradado_sin_nombre_9"/><linearGradient id="Degradado_sin_nombre_9-16" x1="120.97" y1="39.31" x2="149.92" y2="11.79" xlink:href="#Degradado_sin_nombre_9"/><linearGradient id="Degradado_sin_nombre_9-17" x1="110.34" y1="28.13" x2="139.29" y2=".61" xlink:href="#Degradado_sin_nombre_9"/><linearGradient id="Degradado_sin_nombre_9-18" x1="115.4" y1="33.46" x2="144.36" y2="5.94" xlink:href="#Degradado_sin_nombre_9"/><linearGradient id="Degradado_sin_nombre_9-19" x1="121.19" y1="39.55" x2="150.14" y2="12.02" xlink:href="#Degradado_sin_nombre_9"/><linearGradient id="Degradado_sin_nombre_9-20" x1="109.9" y1="27.67" x2="138.86" y2=".15" xlink:href="#Degradado_sin_nombre_9"/><linearGradient id="Degradado_sin_nombre_9-21" x1="115.69" y1="33.76" x2="144.64" y2="6.24" xlink:href="#Degradado_sin_nombre_9"/><linearGradient id="Degradado_sin_nombre_9-22" x1="110.06" y1="27.84" x2="139.01" y2=".31" xlink:href="#Degradado_sin_nombre_9"/><linearGradient id="Degradado_sin_nombre_9-23" x1="121.24" y1="39.6" x2="150.2" y2="12.08" xlink:href="#Degradado_sin_nombre_9"/><linearGradient id="Degradado_sin_nombre_9-24" x1="115.29" y1="33.34" x2="144.24" y2="5.82" xlink:href="#Degradado_sin_nombre_9"/><linearGradient id="Degradado_sin_nombre_9-25" x1="115.91" y1="33.99" x2="144.86" y2="6.47" xlink:href="#Degradado_sin_nombre_9"/><linearGradient id="Degradado_sin_nombre_9-26" x1="124.73" y1="43.27" x2="153.68" y2="15.75" xlink:href="#Degradado_sin_nombre_9"/><linearGradient id="Degradado_sin_nombre_9-27" x1="106.36" y1="23.94" x2="135.31" y2="-3.58" xlink:href="#Degradado_sin_nombre_9"/><linearGradient id="Degradado_sin_nombre_9-28" x1="110.73" y1="28.54" x2="139.68" y2="1.02" xlink:href="#Degradado_sin_nombre_9"/><linearGradient id="Degradado_sin_nombre_9-29" x1="120.35" y1="38.66" x2="149.3" y2="11.14" xlink:href="#Degradado_sin_nombre_9"/><linearGradient id="Degradado_sin_nombre_9-30" x1="105.46" y1="23" x2="134.41" y2="-4.53" xlink:href="#Degradado_sin_nombre_9"/><linearGradient id="Degradado_sin_nombre_9-31" x1="125.62" y1="44.21" x2="154.58" y2="16.69" xlink:href="#Degradado_sin_nombre_9"/><linearGradient id="Degradado_sin_nombre_9-32" x1="116.01" y1="34.1" x2="144.96" y2="6.57" xlink:href="#Degradado_sin_nombre_9"/><linearGradient id="Degradado_sin_nombre_9-33" x1="111.32" y1="29.16" x2="140.27" y2="1.64" xlink:href="#Degradado_sin_nombre_9"/><linearGradient id="Degradado_sin_nombre_9-34" x1="120.46" y1="38.78" x2="149.42" y2="11.26" xlink:href="#Degradado_sin_nombre_9"/><linearGradient id="Degradado_sin_nombre_9-35" x1="110.63" y1="28.44" x2="139.59" y2=".92" xlink:href="#Degradado_sin_nombre_9"/><linearGradient id="Degradado_sin_nombre_9-36" x1="119.78" y1="38.06" x2="148.73" y2="10.54" xlink:href="#Degradado_sin_nombre_9"/><linearGradient id="Degradado_sin_nombre_9-37" x1="115.31" y1="33.37" x2="144.27" y2="5.84" xlink:href="#Degradado_sin_nombre_9"/><linearGradient id="Degradado_sin_nombre_9-38" x1="101.96" y1="19.31" x2="130.91" y2="-8.21" xlink:href="#Degradado_sin_nombre_9"/><linearGradient id="Degradado_sin_nombre_9-39" x1="102.19" y1="19.56" x2="131.14" y2="-7.96" xlink:href="#Degradado_sin_nombre_9"/><linearGradient id="Degradado_sin_nombre_9-40" x1="128.91" y1="47.66" x2="157.86" y2="20.14" xlink:href="#Degradado_sin_nombre_9"/><linearGradient id="Degradado_sin_nombre_9-41" x1="129.14" y1="47.91" x2="158.09" y2="20.39" xlink:href="#Degradado_sin_nombre_9"/><linearGradient id="Degradado_sin_nombre_9-42" x1="107.78" y1="25.44" x2="136.74" y2="-2.08" xlink:href="#Degradado_sin_nombre_9"/><linearGradient id="Degradado_sin_nombre_9-43" x1="103.19" y1="20.61" x2="132.14" y2="-6.91" xlink:href="#Degradado_sin_nombre_9"/><linearGradient id="Degradado_sin_nombre_9-44" x1="128.15" y1="46.87" x2="157.11" y2="19.35" xlink:href="#Degradado_sin_nombre_9"/><linearGradient id="Degradado_sin_nombre_9-45" x1="123.56" y1="42.04" x2="152.51" y2="14.52" xlink:href="#Degradado_sin_nombre_9"/><linearGradient id="Degradado_sin_nombre_9-46" x1="100.01" y1="17.26" x2="128.96" y2="-10.26" gradientTransform="rotate(44.99 111.261 6.558)" xlink:href="#Degradado_sin_nombre_9"/><linearGradient id="Degradado_sin_nombre_9-47" x1="131.3" y1="50.19" x2="160.26" y2="22.66" gradientTransform="rotate(44.99 143.473 38.608)" xlink:href="#Degradado_sin_nombre_9"/><linearGradient id="Degradado_sin_nombre_9-48" x1="130.91" y1="49.77" x2="159.86" y2="22.25" gradientTransform="rotate(45 139.08 42.009)" xlink:href="#Degradado_sin_nombre_9"/><linearGradient id="Degradado_sin_nombre_9-49" x1="130.79" y1="49.66" x2="159.75" y2="22.12" gradientTransform="rotate(45 147.057 34.193)" xlink:href="#Degradado_sin_nombre_9"/><linearGradient id="Degradado_sin_nombre_9-50" x1="100.22" y1="17.49" x2="129.17" y2="-10.03" gradientTransform="rotate(45 107.572 10.498)" xlink:href="#Degradado_sin_nombre_9"/><linearGradient id="Degradado_sin_nombre_9-51" x1="100.11" y1="17.37" x2="129.07" y2="-10.16" gradientTransform="rotate(45 115.554 2.694)" xlink:href="#Degradado_sin_nombre_9"/><linearGradient id="Degradado_sin_nombre_9-52" x1="116.09" y1="34.18" x2="145.05" y2="6.65" gradientTransform="rotate(45 111.344 38.69)" xlink:href="#Degradado_sin_nombre_9"/><linearGradient id="Degradado_sin_nombre_9-53" x1="115.22" y1="33.27" x2="144.17" y2="5.74" gradientTransform="rotate(44.99 143.393 6.477)" xlink:href="#Degradado_sin_nombre_9"/><linearGradient id="Degradado_sin_nombre_9-54" x1="118.96" y1="37.21" x2="147.92" y2="9.68" gradientTransform="rotate(45.01 146.987 10.591)" xlink:href="#Degradado_sin_nombre_9"/><linearGradient id="Degradado_sin_nombre_9-55" x1="111.27" y1="29.11" x2="140.23" y2="1.59" gradientTransform="rotate(44.99 139.145 2.606)" xlink:href="#Degradado_sin_nombre_9"/><linearGradient id="Degradado_sin_nombre_9-56" x1="119.74" y1="38.02" x2="148.7" y2="10.5" gradientTransform="rotate(45.01 115.468 42.088)" xlink:href="#Degradado_sin_nombre_9"/><linearGradient id="Degradado_sin_nombre_9-57" x1="112.05" y1="29.93" x2="141.01" y2="2.41" gradientTransform="rotate(44.99 107.649 34.108)" xlink:href="#Degradado_sin_nombre_9"/></defs><title>Recurso 2</title><g id="Capa_2" data-name="Capa 2"><g id="Capa_1-2" data-name="Capa 1"><path class="cls-1" d="M5.32 43.6a10 10 0 0 1-3.9-3.73 10.75 10.75 0 0 1 0-10.67 10 10 0 0 1 3.9-3.73 11.54 11.54 0 0 1 5.58-1.34 11.54 11.54 0 0 1 5.58 1.34 10 10 0 0 1 3.9 3.72 10.81 10.81 0 0 1 0 10.7 10 10 0 0 1-3.9 3.72 11.54 11.54 0 0 1-5.58 1.34 11.54 11.54 0 0 1-5.58-1.35zm9.23-2.86a6.59 6.59 0 0 0 2.54-2.54 7.69 7.69 0 0 0 0-7.32 6.59 6.59 0 0 0-2.54-2.55 7.3 7.3 0 0 0-3.64-.91 7.3 7.3 0 0 0-3.64.91 6.59 6.59 0 0 0-2.55 2.55 7.69 7.69 0 0 0 0 7.32 6.59 6.59 0 0 0 2.55 2.54 7.3 7.3 0 0 0 3.64.91 7.3 7.3 0 0 0 3.64-.92zM39 44.65l-4.14-5.93a7.71 7.71 0 0 1-.78 0h-4.52v5.9H25.8V24.41h8.33a11.21 11.21 0 0 1 4.58.87 6.67 6.67 0 0 1 3 2.49 7 7 0 0 1 1 3.85 6.86 6.86 0 0 1-1.11 3.93A6.63 6.63 0 0 1 38.44 38l4.66 6.65zm-1.36-16a5.78 5.78 0 0 0-3.73-1h-4.4v8.07H34a5.72 5.72 0 0 0 3.73-1.06 3.67 3.67 0 0 0 1.27-3 3.63 3.63 0 0 0-1.32-3.03zM62.12 41.5v3.15H46.94V24.41h14.78v3.15h-11v5.26h9.78v3.09h-9.8v5.59zm11.17-5.32l-3.21 3.3v5.18h-3.76V24.41h3.76v10.38l10-10.38h4.22l-8.5 9.05 9 11.19h-4.4zM100.82 40H90.7l-2 4.69h-3.87l9.11-20.25h3.7l9.14 20.25h-3.93zm-1.24-3l-3.82-8.85L92 37z"/><g id="_Grupo_" data-name="&lt;Grupo&gt;"><circle id="_Trazado_" data-name="&lt;Trazado&gt;" class="cls-2" cx="132.17" cy="43.89" r=".97"/><circle id="_Trazado_2" data-name="&lt;Trazado&gt;" class="cls-3" cx="122.97" cy="43.89" r=".97"/><circle id="_Trazado_3" data-name="&lt;Trazado&gt;" class="cls-4" cx="132.17" cy=".97" r=".97"/><circle id="_Trazado_4" data-name="&lt;Trazado&gt;" class="cls-5" cx="122.97" cy=".97" r=".97"/><g id="_Grupo_2" data-name="&lt;Grupo&gt;"><circle id="_Trazado_5" data-name="&lt;Trazado&gt;" class="cls-6" cx="127.34" cy="22.65" r="3.87"/><circle id="_Trazado_6" data-name="&lt;Trazado&gt;" class="cls-7" cx="141.36" cy="36.68" r="1.22"/><circle id="_Trazado_7" data-name="&lt;Trazado&gt;" class="cls-8" cx="113.29" cy="8.6" r="1.22"/><circle id="_Trazado_8" data-name="&lt;Trazado&gt;" class="cls-9" cx="127.29" cy="41.79" r="1.63"/><circle id="_Trazado_9" data-name="&lt;Trazado&gt;" class="cls-10" cx="127.29" cy="3.09" r="1.63"/><circle id="_Trazado_10" data-name="&lt;Trazado&gt;" class="cls-11" cx="137.88" cy="33.04" r="2.04"/><circle id="_Trazado_11" data-name="&lt;Trazado&gt;" class="cls-12" cx="132.56" cy="38.13" r="2.04"/><circle id="_Trazado_12" data-name="&lt;Trazado&gt;" class="cls-13" cx="122.01" cy="38.13" r="2.04"/><circle id="_Trazado_13" data-name="&lt;Trazado&gt;" class="cls-14" cx="122.01" cy="6.75" r="2.04"/><circle id="_Trazado_14" data-name="&lt;Trazado&gt;" class="cls-15" cx="132.56" cy="6.75" r="2.04"/><circle id="_Trazado_15" data-name="&lt;Trazado&gt;" class="cls-16" cx="116.71" cy="12.06" r="2.04"/><circle id="_Trazado_16" data-name="&lt;Trazado&gt;" class="cls-17" cx="138.49" cy="22.65" r="2.65"/><circle id="_Trazado_17" data-name="&lt;Trazado&gt;" class="cls-18" cx="116.09" cy="22.65" r="2.65"/><circle id="_Trazado_18" data-name="&lt;Trazado&gt;" class="cls-19" cx="133" cy="16.73" r="3.26"/><circle id="_Trazado_19" data-name="&lt;Trazado&gt;" class="cls-20" cx="133" cy="28.32" r="3.26"/><circle id="_Trazado_20" data-name="&lt;Trazado&gt;" class="cls-21" cx="121.42" cy="16.73" r="3.26"/><circle id="_Trazado_21" data-name="&lt;Trazado&gt;" class="cls-22" cx="121.42" cy="28.32" r="3.26"/><circle id="_Trazado_22" data-name="&lt;Trazado&gt;" class="cls-23" cx="127.29" cy="11.45" r="2.65"/><circle id="_Trazado_23" data-name="&lt;Trazado&gt;" class="cls-24" cx="127.29" cy="33.85" r="2.65"/><circle id="_Trazado_24" data-name="&lt;Trazado&gt;" class="cls-25" cx="137.78" cy="11.96" r="2.04"/><circle id="_Trazado_25" data-name="&lt;Trazado&gt;" class="cls-26" cx="116.81" cy="33.14" r="2.04"/><circle id="_Trazado_26" data-name="&lt;Trazado&gt;" class="cls-27" cx="146.65" cy="22.44" r="1.63"/><circle id="_Trazado_27" data-name="&lt;Trazado&gt;" class="cls-28" cx="107.94" cy="22.44" r="1.63"/><circle id="_Trazado_28" data-name="&lt;Trazado&gt;" class="cls-29" cx="111.6" cy="27.72" r="2.04"/><circle id="_Trazado_29" data-name="&lt;Trazado&gt;" class="cls-30" cx="142.97" cy="17.16" r="2.04"/><circle id="_Trazado_30" data-name="&lt;Trazado&gt;" class="cls-31" cx="111.6" cy="17.16" r="2.04"/><circle id="_Trazado_31" data-name="&lt;Trazado&gt;" class="cls-32" cx="142.97" cy="27.72" r="2.04"/><circle id="_Trazado_32" data-name="&lt;Trazado&gt;" class="cls-33" cx="113.29" cy="36.68" r="1.22"/><circle id="_Trazado_33" data-name="&lt;Trazado&gt;" class="cls-34" cx="108.78" cy="31.57" r="1.22"/><circle id="_Trazado_34" data-name="&lt;Trazado&gt;" class="cls-35" cx="118.17" cy="40.96" r="1.22"/><circle id="_Trazado_35" data-name="&lt;Trazado&gt;" class="cls-36" cx="136.44" cy="3.91" r="1.22"/><circle id="_Trazado_36" data-name="&lt;Trazado&gt;" class="cls-37" cx="145.83" cy="13.3" r="1.22"/><circle id="_Trazado_37" data-name="&lt;Trazado&gt;" class="cls-38" cx="141.36" cy="8.6" r="1.22"/><circle id="_Trazado_38" data-name="&lt;Trazado&gt;" class="cls-39" cx="118.17" cy="3.91" r="1.22"/><circle id="_Trazado_39" data-name="&lt;Trazado&gt;" class="cls-40" cx="108.78" cy="13.3" r="1.22"/><circle id="_Trazado_40" data-name="&lt;Trazado&gt;" class="cls-41" cx="145.83" cy="31.57" r="1.22"/><circle id="_Trazado_41" data-name="&lt;Trazado&gt;" class="cls-42" cx="136.44" cy="40.96" r="1.22"/></g><circle id="_Trazado_42" data-name="&lt;Trazado&gt;" class="cls-43" cx="106.11" cy="27.03" r=".97"/><circle id="_Trazado_43" data-name="&lt;Trazado&gt;" class="cls-44" cx="106.11" cy="17.83" r=".97"/><circle id="_Trazado_44" data-name="&lt;Trazado&gt;" class="cls-45" cx="149.03" cy="27.03" r=".97"/><circle id="_Trazado_45" data-name="&lt;Trazado&gt;" class="cls-46" cx="149.03" cy="17.83" r=".97"/><circle id="_Trazado_46" data-name="&lt;Trazado&gt;" class="cls-47" cx="111.26" cy="6.56" r=".58" transform="rotate(-44.99 111.263 6.555)"/><circle id="_Trazado_47" data-name="&lt;Trazado&gt;" class="cls-48" cx="143.47" cy="38.61" r=".58" transform="rotate(-44.99 143.473 38.621)"/><circle id="_Trazado_48" data-name="&lt;Trazado&gt;" class="cls-49" cx="139.07" cy="42" r=".58" transform="rotate(-45 139.086 41.999)"/><circle id="_Trazado_49" data-name="&lt;Trazado&gt;" class="cls-50" cx="147.05" cy="34.19" r=".58" transform="rotate(-45 147.055 34.198)"/><circle id="_Trazado_50" data-name="&lt;Trazado&gt;" class="cls-51" cx="107.57" cy="10.5" r=".58" transform="rotate(-45 107.57 10.503)"/><circle id="_Trazado_51" data-name="&lt;Trazado&gt;" class="cls-52" cx="115.55" cy="2.69" r=".58" transform="rotate(-45 115.544 2.69)"/><circle id="_Trazado_52" data-name="&lt;Trazado&gt;" class="cls-53" cx="111.34" cy="38.69" r=".58" transform="rotate(-45 111.337 38.693)"/><circle id="_Trazado_53" data-name="&lt;Trazado&gt;" class="cls-54" cx="143.4" cy="6.48" r=".58" transform="rotate(-44.99 143.4 6.483)"/><circle id="_Trazado_54" data-name="&lt;Trazado&gt;" class="cls-55" cx="146.97" cy="10.58" r=".58" transform="rotate(-45.01 146.984 10.575)"/><circle id="_Trazado_55" data-name="&lt;Trazado&gt;" class="cls-56" cx="139.16" cy="2.6" r=".58" transform="rotate(-44.99 139.147 2.614)"/><circle id="_Trazado_56" data-name="&lt;Trazado&gt;" class="cls-57" cx="115.47" cy="42.09" r=".58" transform="rotate(-45.01 115.463 42.083)"/><circle id="_Trazado_57" data-name="&lt;Trazado&gt;" class="cls-58" cx="107.66" cy="34.11" r=".58" transform="rotate(-44.99 107.658 34.115)"/></g></g></g></svg>